<?xml version="1.0" encoding="utf-8"?>
<!-- Generator: Adobe Illustrator 27.5.0, SVG Export Plug-In . SVG Version: 6.00 Build 0)  -->
<svg version="1.1" xmlns="http://www.w3.org/2000/svg" xmlns:xlink="http://www.w3.org/1999/xlink" x="0px" y="0px"
	 viewBox="0 0 500 500" style="enable-background:new 0 0 500 500;" xml:space="preserve">
<g id="BACKGROUND">
	<rect style="fill:#F4F4F4;" width="500" height="500"/>
</g>
<g id="OBJECTS">
	<g>
		<g>
			<polygon style="opacity:0.3;fill:#BFBFBF;" points="67.321,428.026 67.321,259.651 95.982,259.651 95.982,145.332 
				137.271,145.332 137.271,178.307 320.198,178.307 320.198,78.698 399.552,78.698 399.552,208.231 426.439,208.231 
				426.439,426.692 			"/>
			<g>
				<rect x="376.212" y="86.534" style="fill:#F4F4F4;" width="5.496" height="5.496"/>
				<rect x="384.317" y="86.534" style="fill:#F4F4F4;" width="5.496" height="5.496"/>
				<rect x="376.212" y="94.702" style="fill:#F4F4F4;" width="5.496" height="5.496"/>
				<rect x="384.317" y="94.702" style="fill:#F4F4F4;" width="5.496" height="5.496"/>
			</g>
			<g>
				<rect x="376.212" y="104.098" style="fill:#F4F4F4;" width="5.496" height="5.496"/>
				<rect x="384.317" y="104.098" style="fill:#F4F4F4;" width="5.496" height="5.496"/>
				<rect x="376.212" y="112.266" style="fill:#F4F4F4;" width="5.496" height="5.496"/>
				<rect x="384.317" y="112.266" style="fill:#F4F4F4;" width="5.496" height="5.496"/>
			</g>
			<g>
				<rect x="77.541" y="272.06" style="fill:#F4F4F4;" width="5.496" height="5.496"/>
				<rect x="85.646" y="272.06" style="fill:#F4F4F4;" width="5.496" height="5.496"/>
				<rect x="77.541" y="280.228" style="fill:#F4F4F4;" width="5.496" height="5.496"/>
				<rect x="85.646" y="280.228" style="fill:#F4F4F4;" width="5.496" height="5.496"/>
			</g>
			<g>
				<rect x="77.541" y="295.549" style="fill:#F4F4F4;" width="5.496" height="5.496"/>
				<rect x="85.646" y="295.549" style="fill:#F4F4F4;" width="5.496" height="5.496"/>
				<rect x="77.541" y="303.717" style="fill:#F4F4F4;" width="5.496" height="5.496"/>
				<rect x="85.646" y="303.717" style="fill:#F4F4F4;" width="5.496" height="5.496"/>
			</g>
			<g>
				<rect x="115.109" y="274.353" style="fill:#F4F4F4;" width="5.496" height="5.496"/>
				<rect x="123.215" y="274.353" style="fill:#F4F4F4;" width="5.496" height="5.496"/>
				<rect x="115.109" y="282.522" style="fill:#F4F4F4;" width="5.496" height="5.496"/>
				<rect x="123.215" y="282.522" style="fill:#F4F4F4;" width="5.496" height="5.496"/>
			</g>
			<g>
				<rect x="358.783" y="147.351" style="fill:#F4F4F4;" width="5.496" height="5.496"/>
				<rect x="366.888" y="147.351" style="fill:#F4F4F4;" width="5.496" height="5.496"/>
				<rect x="358.783" y="155.519" style="fill:#F4F4F4;" width="5.496" height="5.496"/>
				<rect x="366.888" y="155.519" style="fill:#F4F4F4;" width="5.496" height="5.496"/>
			</g>
			<g>
				<rect x="339.453" y="87.87" style="fill:#F4F4F4;" width="5.496" height="5.496"/>
				<rect x="347.558" y="87.87" style="fill:#F4F4F4;" width="5.496" height="5.496"/>
				<rect x="339.453" y="96.038" style="fill:#F4F4F4;" width="5.496" height="5.496"/>
				<rect x="347.558" y="96.038" style="fill:#F4F4F4;" width="5.496" height="5.496"/>
			</g>
			<polygon style="opacity:0.3;fill:#BFBFBF;" points="132.889,426.569 132.889,295.549 157.476,295.549 192.868,295.549 
				192.868,426.569 			"/>
		</g>
		<g>
			<g>
				<rect x="209.471" y="187.574" style="fill:#B91F29;" width="221.455" height="234.526"/>
				<rect x="199.264" y="180.93" style="fill:#E2AA35;" width="241.868" height="41.612"/>
				<rect x="204.258" y="407.27" style="fill:#871D21;" width="231.88" height="19.48"/>
				<g>
					<g>
						<rect x="292.902" y="249.914" style="fill:#A12323;" width="130.61" height="82.953"/>
						<g>
							<rect x="290.847" y="247.558" style="fill:#9FB1CE;" width="130.61" height="82.953"/>
						</g>
					</g>
					<g>
						<rect x="296.033" y="251.592" style="fill:#C1CFEA;" width="120.705" height="74.547"/>
					</g>
					<g>
						<defs>
							<rect id="SVGID_1_" x="296.033" y="251.592" width="120.705" height="74.547"/>
						</defs>
						<clipPath id="SVGID_00000159442740491121301820000015216641834551247250_">
							<use xlink:href="#SVGID_1_"  style="overflow:visible;"/>
						</clipPath>
						
							<linearGradient id="SVGID_00000121995144829061085390000010114994883595804567_" gradientUnits="userSpaceOnUse" x1="308.7192" y1="259.6508" x2="408.4918" y2="259.6508">
							<stop  offset="0.0026" style="stop-color:#FEFDF7;stop-opacity:0"/>
							<stop  offset="0.9607" style="stop-color:#FEFEFD"/>
						</linearGradient>
						
							<polygon style="clip-path:url(#SVGID_00000159442740491121301820000015216641834551247250_);fill:url(#SVGID_00000121995144829061085390000010114994883595804567_);" points="
							308.719,297.323 408.492,197.55 408.492,222.223 308.963,321.751 						"/>
						
							<linearGradient id="SVGID_00000085249188078244919100000005887154276268543383_" gradientUnits="userSpaceOnUse" x1="349.666" y1="295.2289" x2="449.4386" y2="295.2289">
							<stop  offset="0.0026" style="stop-color:#FEFDF7;stop-opacity:0"/>
							<stop  offset="0.9607" style="stop-color:#FEFEFD"/>
						</linearGradient>
						
							<polygon style="clip-path:url(#SVGID_00000159442740491121301820000015216641834551247250_);fill:url(#SVGID_00000085249188078244919100000005887154276268543383_);" points="
							349.666,332.901 449.439,233.128 449.439,257.801 349.91,357.329 						"/>
						
							<linearGradient id="SVGID_00000044884138028455419570000003784596460303828156_" gradientUnits="userSpaceOnUse" x1="333.6862" y1="262.7654" x2="433.4588" y2="262.7654">
							<stop  offset="0.0026" style="stop-color:#FEFDF7;stop-opacity:0"/>
							<stop  offset="0.9607" style="stop-color:#FEFEFD"/>
						</linearGradient>
						
							<polygon style="clip-path:url(#SVGID_00000159442740491121301820000015216641834551247250_);fill:url(#SVGID_00000044884138028455419570000003784596460303828156_);" points="
							333.686,308.772 433.459,208.999 433.459,217.003 333.93,316.531 						"/>
					</g>
				</g>
				<path style="opacity:0.7;fill:#A12323;" d="M269.34,279.103c0,2.511,3.036,3.769,4.812,1.993l32.47-32.47
					c1.101-1.101,1.101-2.885,0-3.986l-9.001-9.001l8.925-0.379c10.183-0.432,18.97-7.278,21.879-17.047l9.746-37.283H199.264
					v41.612h10.207v47.086h59.869V279.103z"/>
				<g>
					<polygon style="fill:#292927;" points="209.47,298.67 155.663,243.291 149.771,249.016 209.47,310.461 					"/>
				</g>
				<g>
					<path style="fill:#C32A29;" d="M129.192,40.614c26.966,1.675,118.861,9.532,179.153,41.089
						c2.968,1.553,4.357,5.042,3.308,8.223l-7.546,22.879c-1.147,3.477-4.819,5.445-8.346,4.465
						c-22.63-6.283-101.939-26.381-163.68-18.182c-3.944,0.524-7.486-2.459-7.704-6.432l-2.456-44.816
						C121.696,43.739,125.092,40.359,129.192,40.614z"/>
					<path style="fill:#EDB632;" d="M101.483,50.936c30.487-0.8,134.655-1.335,206.329,25.215c3.528,1.307,5.528,4.733,4.751,8.071
						l-5.585,24.014c-0.849,3.649-4.724,5.996-8.807,5.326c-26.201-4.299-117.781-17.406-186.066-3.313
						c-4.362,0.9-8.716-1.81-9.461-5.838l-8.412-45.437C93.462,54.817,96.848,51.057,101.483,50.936z"/>
					<path style="fill:none;stroke:#C32A29;stroke-width:2;stroke-miterlimit:10;" d="M106.639,56.212
						c28.539-0.38,126.072,0.175,193.442,23.293c3.316,1.138,5.222,4.051,4.527,6.863l-4.998,20.228
						c-0.76,3.074-4.365,5.018-8.196,4.413c-24.575-3.884-110.454-15.84-174.256-4.598c-4.076,0.718-8.178-1.613-8.916-5.022
						l-8.316-38.457C99.165,59.412,102.3,56.27,106.639,56.212z"/>
					<path style="fill:#CF614B;" d="M82.243,103.775l241.665-5.358c16.196-0.359,28.044,15.168,23.421,30.694l-21.985,84.105
						c-2.909,9.769-11.696,16.615-21.879,17.047l-191.066,8.106c-10.329,0.438-19.768-5.819-23.386-15.503l-28.613-86.853
						C54.645,120.613,65.807,104.139,82.243,103.775z"/>
					<path style="fill:#C32A29;" d="M81.979,112.104l242.586-5.158c10.156-0.216,17.586,9.121,14.686,18.457l-24.485,89.127
						c-1.824,5.874-7.334,9.991-13.72,10.251l-186.431,7.584c-6.477,0.264-12.396-3.499-14.665-9.323l-31.67-91.553
						C64.673,122.229,71.673,112.323,81.979,112.104z"/>
					<path style="opacity:0.74;fill:#8C1819;" d="M76.734,138.227c-3.608-9.26-4.172-19.166,6.134-19.385l250.149-5.158
						c1.764-0.037,3.443,0.219,5.003,0.708c-2.566-4.46-7.547-7.571-13.456-7.446l-242.586,5.158
						c-10.307,0.219-17.306,10.125-13.698,19.386l31.67,91.553c1.624,4.169,5.123,7.271,9.353,8.607
						c-0.341-0.597-0.647-1.218-0.9-1.869L76.734,138.227z"/>
					
						<text transform="matrix(1 0 0 1 148.2412 94.9951)" style="fill:#C32A29;stroke:#C32B2A;stroke-miterlimit:10; font-family:'NexaRustSansDemo-Black'; font-size:32.7829px;">Open</text>
					<g>
						<g style="opacity:0.75;">
							<path style="fill:#A12123;" d="M153.26,124.946c-17.293,0-29.45,10.949-29.45,23.863c0,5.739,3.247,11.025,9.44,11.025
								c7.325,0,12.006-9.515,9.892-9.817c-1.661,0-2.87-1.661-2.87-3.851c0-7.778,7.023-11.101,14.122-11.101
								c10.421,0,13.366,5.663,13.366,12.082c0,8.911-4.757,19.105-11.327,19.105c-2.568,0-3.625-1.51-3.625-3.474
								c0-4.53,5.588-15.027,6.645-19.936c0.529-2.492-0.151-4.078-3.322-4.078c-2.266,0-3.927,0.982-4.909,3.625
								c-1.284,3.247-2.718,7.098-4.002,10.496c-3.549,9.062-9.515,12.913-14.197,12.913c-4.153,0-7.401-2.266-7.401-5.589
								c0-0.528-0.528-0.906-1.132-0.906c-6.042,0-10.044,6.116-10.044,12.309c0,6.268,3.776,12.686,13.064,12.686
								c7.778,0,14.273-4.908,18.502-12.762c0.377,6.268,4.153,10.345,10.421,10.345c12.082,0,22.579-16.764,22.579-32.849
								C179.01,136.197,172.516,124.946,153.26,124.946z"/>
							<path style="fill:#A12123;" d="M223.937,140.275c3.926,0,7.023-1.511,7.476-6.192c0.377-4.682-2.719-6.117-6.57-6.117
								c-4.154,0-7.551,1.586-7.551,6.947C217.292,138.917,220.312,140.275,223.937,140.275z"/>
							<path style="fill:#A12123;" d="M295.22,160.438c-3.399,5.211-9.515,7.854-14.65,7.854c-4.305,0-7.854-1.359-7.854-4.003
								c0-0.981,0.755-1.208,1.284-0.906c1.737,0.981,3.775,1.208,5.89,1.208c7.4,0,12.158-6.192,12.158-11.705
								c0-4.984-3.096-9.515-10.119-9.515c-10.076,0-16.815,8.161-19.018,16.895c-0.058,0.052-0.114,0.106-0.161,0.171
								c-1.813,2.643-3.851,3.701-6.041,3.701c-1.058,0-1.964-0.151-2.719-0.453c6.117-11.856,7.023-20.465,0.68-20.465
								c-5.211,0-7.552,5.664-7.552,12.309c0,2.416,0.302,4.682,0.831,7.023c-0.755,1.133-2.341,2.946-5.513,2.946
								c-3.096,0-4.455-1.813-4.455-4.682c0-4.456,3.398-10.195,3.398-14.423c0-2.19-0.831-3.021-2.341-3.021
								c-4.153,0-8.231,9.137-10.119,17.066c-0.041,0.163-0.077,0.329-0.116,0.493c-1.39,1.984-2.774,3.283-4.867,3.283
								c-2.039,0-3.399-1.284-3.399-3.776c0-4.077,3.399-9.061,3.399-13.668c0-2.417-0.982-3.398-2.568-3.398
								c-4.304,0-7.4,6.117-10.874,17.066c-0.001,0.002-0.001,0.004-0.002,0.005c-1.51,2.262-2.943,3.846-5.207,3.846
								c-3.398,0-4.682-1.586-4.682-3.701c0-4.681,3.247-7.853,3.247-12.158c0-4.077-7.249-8.91-14.348-8.91
								c-4.077,0-6.72,3.7-6.72,6.796c0,2.718,0.981,3.7,2.492,4.228c-1.284,3.474-3.172,7.854-4.607,9.892
								c-0.982,1.435,2.417,3.851,3.398,1.888c1.209-2.492,3.701-7.627,5.06-10.647c3.02,1.133,4.002,3.02,4.002,3.775
								c0,3.625-5.286,10.723-5.286,17.746c0,3.851,2.115,7.929,8.307,7.929c5.514,0,9.546-4.288,12.47-8.881
								c0.132,5.016,2.056,8.881,6.935,8.881c5.733,0,9.765-5.127,12.606-10.178c0.668,5.641,3.299,10.102,8.386,10.102
								c4.606,0,9.062-4.078,12.838-9.515c1.057,0.755,2.265,1.133,3.549,1.133c4.12,0,7.094-1.816,9.297-4.225
								c0.652,6.973,4.731,12.682,12.978,12.682c8.76,0,16.764-6.495,23.41-18.803C299.448,160.891,296.428,158.626,295.22,160.438z
								 M279.135,151.603c2.341,0,3.473,1.434,3.473,3.096c0,1.888-1.736,4.229-4.682,4.229c-2.416,0-3.549-1.435-3.549-3.096
								C274.377,153.793,276.19,151.603,279.135,151.603z"/>
							<path style="fill:#A12123;" d="M137.25,196.113c0,0,19.235-0.74,20.807,0c1.572,0.74,1.942,2.034,1.85,3.144
								c-0.092,1.11-20.9,1.295-22.657,0.925C135.493,199.812,134.002,196.224,137.25,196.113z"/>
							<path style="fill:#A12123;" d="M143.563,200.871c-3.394,0-6.053-0.066-6.428-0.145c-1.306-0.275-2.47-1.897-2.35-3.275
								c0.099-1.137,1.012-1.845,2.444-1.894c3.237-0.125,19.451-0.707,21.064,0.052c2.072,0.975,2.248,2.733,2.167,3.694
								c-0.009,0.114-0.06,0.33-0.297,0.506C159.055,200.635,149.993,200.871,143.563,200.871z M151.953,196.339
								c-4.023,0-9.525,0.131-14.682,0.329h-0.002c-0.865,0.03-1.327,0.325-1.375,0.879c-0.071,0.817,0.713,1.93,1.471,2.09
								c2.102,0.442,19.847,0.076,21.999-0.663c0.008-0.79-0.282-1.765-1.544-2.359
								C157.389,196.421,155.132,196.339,151.953,196.339z"/>
							<path style="fill:#A12123;" d="M255.201,196.113c0,0,19.235-0.74,20.807,0c1.572,0.74,1.942,2.034,1.849,3.144
								c-0.092,1.11-20.9,1.295-22.657,0.925C253.444,199.812,251.953,196.224,255.201,196.113z"/>
							<path style="fill:#A12123;" d="M261.514,200.871c-3.394,0-6.053-0.066-6.428-0.145c-1.306-0.275-2.47-1.897-2.35-3.275
								c0.099-1.137,1.012-1.845,2.444-1.894c3.237-0.125,19.451-0.707,21.064,0.052c2.072,0.975,2.248,2.733,2.167,3.694
								c-0.009,0.114-0.06,0.33-0.297,0.506C277.007,200.635,267.945,200.871,261.514,200.871z M269.904,196.339
								c-4.023,0-9.525,0.131-14.682,0.329h-0.002c-0.865,0.03-1.327,0.325-1.375,0.879c-0.071,0.817,0.713,1.93,1.471,2.09
								c2.103,0.442,19.847,0.076,21.999-0.663c0.008-0.79-0.282-1.765-1.544-2.359C275.34,196.421,273.083,196.339,269.904,196.339
								z"/>
							
								<text transform="matrix(1 0 0 1 160.4795 206.4165)" style="fill:#A12123;stroke:#A12123;stroke-miterlimit:10; font-family:'NexaRustSansDemo-Black'; font-size:27.7766px; letter-spacing:1;">THRU</text>
						</g>
						<g>
							<g>
								<g>
									<path style="fill:#F4F4F4;" d="M150.26,122.946c-17.293,0-29.45,10.949-29.45,23.863c0,5.739,3.247,11.025,9.44,11.025
										c7.325,0,12.006-9.515,9.892-9.817c-1.661,0-2.87-1.661-2.87-3.851c0-7.778,7.023-11.101,14.122-11.101
										c10.421,0,13.366,5.663,13.366,12.082c0,8.911-4.757,19.105-11.327,19.105c-2.568,0-3.625-1.51-3.625-3.474
										c0-4.53,5.588-15.027,6.645-19.936c0.529-2.492-0.151-4.078-3.322-4.078c-2.266,0-3.927,0.982-4.909,3.625
										c-1.284,3.247-2.718,7.098-4.002,10.496c-3.549,9.062-9.515,12.913-14.197,12.913c-4.153,0-7.401-2.266-7.401-5.589
										c0-0.528-0.528-0.906-1.132-0.906c-6.042,0-10.044,6.116-10.044,12.309c0,6.268,3.776,12.686,13.064,12.686
										c7.778,0,14.273-4.908,18.502-12.762c0.377,6.268,4.153,10.345,10.421,10.345c12.082,0,22.579-16.764,22.579-32.849
										C176.01,134.197,169.516,122.946,150.26,122.946z"/>
									<path style="fill:#F4F4F4;" d="M220.937,138.275c3.926,0,7.023-1.511,7.476-6.192c0.377-4.682-2.719-6.117-6.57-6.117
										c-4.154,0-7.551,1.586-7.551,6.947C214.292,136.917,217.312,138.275,220.937,138.275z"/>
									<path style="fill:#F4F4F4;" d="M292.22,158.438c-3.399,5.211-9.515,7.854-14.65,7.854c-4.305,0-7.854-1.359-7.854-4.003
										c0-0.981,0.755-1.208,1.284-0.906c1.737,0.981,3.775,1.208,5.89,1.208c7.4,0,12.158-6.192,12.158-11.705
										c0-4.984-3.096-9.515-10.119-9.515c-10.076,0-16.815,8.161-19.018,16.895c-0.058,0.052-0.114,0.106-0.161,0.171
										c-1.813,2.643-3.851,3.701-6.041,3.701c-1.058,0-1.964-0.151-2.719-0.453c6.117-11.856,7.023-20.465,0.68-20.465
										c-5.211,0-7.552,5.664-7.552,12.309c0,2.416,0.302,4.682,0.831,7.023c-0.755,1.133-2.341,2.946-5.513,2.946
										c-3.096,0-4.455-1.813-4.455-4.682c0-4.456,3.398-10.195,3.398-14.423c0-2.19-0.831-3.021-2.341-3.021
										c-4.153,0-8.231,9.137-10.119,17.066c-0.041,0.163-0.077,0.329-0.116,0.493c-1.39,1.984-2.774,3.283-4.867,3.283
										c-2.039,0-3.399-1.284-3.399-3.776c0-4.077,3.399-9.061,3.399-13.668c0-2.417-0.982-3.398-2.568-3.398
										c-4.304,0-7.4,6.117-10.874,17.066c-0.001,0.002-0.001,0.004-0.002,0.005c-1.51,2.262-2.943,3.846-5.207,3.846
										c-3.398,0-4.682-1.586-4.682-3.701c0-4.681,3.247-7.853,3.247-12.158c0-4.077-7.249-8.91-14.348-8.91
										c-4.077,0-6.72,3.7-6.72,6.796c0,2.718,0.981,3.7,2.492,4.228c-1.284,3.474-3.172,7.854-4.607,9.892
										c-0.982,1.435,2.417,3.851,3.398,1.888c1.209-2.492,3.701-7.627,5.06-10.647c3.02,1.133,4.002,3.02,4.002,3.775
										c0,3.625-5.286,10.723-5.286,17.746c0,3.851,2.115,7.929,8.307,7.929c5.514,0,9.546-4.288,12.47-8.881
										c0.132,5.016,2.056,8.881,6.935,8.881c5.733,0,9.765-5.127,12.606-10.178c0.668,5.641,3.299,10.102,8.386,10.102
										c4.606,0,9.062-4.078,12.838-9.515c1.057,0.755,2.265,1.133,3.549,1.133c4.12,0,7.094-1.816,9.297-4.225
										c0.652,6.973,4.731,12.682,12.978,12.682c8.76,0,16.764-6.495,23.41-18.803
										C296.448,158.891,293.428,156.626,292.22,158.438z M276.135,149.603c2.341,0,3.473,1.434,3.473,3.096
										c0,1.888-1.736,4.229-4.682,4.229c-2.416,0-3.549-1.435-3.549-3.096C271.377,151.793,273.19,149.603,276.135,149.603z"/>
								</g>
								<g>
									<g>
										<path style="fill:#F4F4F4;" d="M134.25,194.113c0,0,19.235-0.74,20.807,0c1.572,0.74,1.942,2.034,1.85,3.144
											c-0.092,1.11-20.9,1.295-22.657,0.925C132.493,197.812,131.002,194.224,134.25,194.113z"/>
										<path style="fill:#F4F4F4;" d="M140.563,198.871c-3.394,0-6.053-0.066-6.428-0.145c-1.306-0.275-2.47-1.897-2.35-3.275
											c0.099-1.137,1.012-1.845,2.444-1.894c3.237-0.125,19.451-0.707,21.064,0.052c2.072,0.975,2.248,2.733,2.167,3.694
											c-0.009,0.114-0.06,0.33-0.297,0.506C156.055,198.635,146.993,198.871,140.563,198.871z M148.953,194.339
											c-4.023,0-9.525,0.131-14.682,0.329h-0.002c-0.865,0.03-1.327,0.325-1.375,0.879c-0.071,0.817,0.713,1.93,1.471,2.09
											c2.102,0.442,19.847,0.076,21.999-0.663c0.008-0.79-0.282-1.765-1.544-2.359
											C154.389,194.421,152.132,194.339,148.953,194.339z"/>
									</g>
									<g>
										<path style="fill:#F4F4F4;" d="M252.201,194.113c0,0,19.235-0.74,20.807,0c1.572,0.74,1.942,2.034,1.849,3.144
											c-0.092,1.11-20.9,1.295-22.657,0.925C250.444,197.812,248.953,194.224,252.201,194.113z"/>
										<path style="fill:#F4F4F4;" d="M258.514,198.871c-3.394,0-6.053-0.066-6.428-0.145c-1.306-0.275-2.47-1.897-2.35-3.275
											c0.099-1.137,1.012-1.845,2.444-1.894c3.237-0.125,19.451-0.707,21.064,0.052c2.072,0.975,2.248,2.733,2.167,3.694
											c-0.009,0.114-0.06,0.33-0.297,0.506C274.007,198.635,264.945,198.871,258.514,198.871z M266.904,194.339
											c-4.023,0-9.525,0.131-14.682,0.329h-0.002c-0.865,0.03-1.327,0.325-1.375,0.879c-0.071,0.817,0.713,1.93,1.471,2.09
											c2.103,0.442,19.847,0.076,21.999-0.663c0.008-0.79-0.282-1.765-1.544-2.359
											C272.34,194.421,270.083,194.339,266.904,194.339z"/>
									</g>
								</g>
								
									<text transform="matrix(1 0 0 1 157.4795 204.4165)" style="fill:#F4F4F4;stroke:#F4F4F4;stroke-miterlimit:10; font-family:'NexaRustSansDemo-Black'; font-size:27.7766px; letter-spacing:1;">THRU</text>
							</g>
						</g>
					</g>
					<g>
						<path style="fill:#EDB632;" d="M112.634,219.323h153.739v-10.044c0-2.511,3.036-3.769,4.812-1.993l32.356,32.356
							c1.101,1.101,1.101,2.885,0,3.986l-32.47,32.47c-1.776,1.776-4.812,0.518-4.812-1.993v-9.474H113.005
							c-1.404,0-2.106-1.697-1.114-2.689l17.668-18.221c0.552-0.552,0.585-1.436,0.076-2.028l-18.197-19.767
							C110.561,220.904,111.287,219.323,112.634,219.323z"/>
						<g>
							
								<text transform="matrix(1 0 0 1 143.5317 252.3022)" style="fill:#C32A29;stroke:#C32B2A;stroke-miterlimit:10; font-family:'NexaRustScriptLDemo-1'; font-size:33.8868px;">24 Hours</text>
						</g>
						<path style="fill:none;stroke:#C32A29;stroke-width:1.3;stroke-miterlimit:10;" d="M134.674,241.068l-15.293-16.075
							c-0.487-0.512-0.124-1.359,0.583-1.359h148.35c0.837,0,1.516-0.679,1.516-1.516v-8.906c0-0.462,0.558-0.692,0.884-0.366
							l27.873,27.926c0.709,0.711,0.718,1.859,0.02,2.58l-28.811,29.763c-0.366,0.378-1.007,0.119-1.007-0.408v-10.666
							c0-0.595-0.483-1.078-1.078-1.078l-146.726-0.069c-0.695,0-1.063-0.823-0.599-1.341l14.325-15.989
							C135.352,242.85,135.335,241.763,134.674,241.068z"/>
					</g>
				</g>
				<rect x="345.364" y="188.905" style="fill:#D59038;" width="27.777" height="8.925"/>
				<rect x="373.141" y="208.231" style="fill:#D59038;" width="27.777" height="8.925"/>
				<rect x="218.984" y="293.083" style="fill:#A12323;" width="29.971" height="11.504"/>
				<rect x="245.333" y="305.994" style="fill:#A12323;" width="29.971" height="11.504"/>
				<rect x="403.854" y="387.439" style="fill:#A12323;" width="25.769" height="11.504"/>
			</g>
			<path style="fill:#BFBFBF;" d="M449.225,453.399H50.775c-6.493,0-11.757-5.264-11.757-11.757v-3.193
				c0-6.493,5.264-11.757,11.757-11.757h398.449c6.493,0,11.757,5.264,11.757,11.757v3.193
				C460.982,448.135,455.718,453.399,449.225,453.399z"/>
			<g>
				<g>
					<path style="fill:#0B0A0D;" d="M361.755,427.318l-63.697,0.665L144.8,426.88c0,0-56.443,1.033-64.17-5.423l-3.049-29.585
						l22.131-14.741l37.177,8.654l184.676-10.969l43.777,16.977C365.342,391.792,371.926,422.265,361.755,427.318z"/>
					<g>
						
							<ellipse transform="matrix(0.116 -0.9933 0.9933 0.116 -120.8365 696.3655)" style="fill:#292927;" cx="330.784" cy="416.066" rx="27.457" ry="27.457"/>
						
							<ellipse transform="matrix(0.8016 -0.5979 0.5979 0.8016 -183.1301 280.3415)" style="fill:#59585B;" cx="330.784" cy="416.066" rx="19.415" ry="19.415"/>
						<path style="fill:#B5B5B5;" d="M321.507,421.271c-1.585-2.267-7.283-3.84-10.106-4.5c-0.006-0.168-0.029-0.332-0.031-0.502
							c-0.021-1.966,0.257-3.864,0.782-5.658c3.48,0.328,10.086,0.457,11.556-1.994c1.354-2.258,0.612-7.665,0.063-10.636
							c2.117-0.822,4.406-1.304,6.811-1.329c0.158-0.002,0.31,0.017,0.467,0.019c0.78,3.455,2.656,9.554,5.386,10.192
							c2.378,0.556,6.785-1.434,9.534-2.867c1.533,1.925,2.706,4.144,3.421,6.567c-3.184,1.741-7.695,4.749-7.633,7.303
							c0.061,2.514,3.272,6.431,5.347,8.706c-1.3,2.016-2.967,3.767-4.903,5.179c-2.606-2.513-7.015-6.102-9.497-5.238
							c-2.541,0.885-5.509,5.692-6.958,8.288c-2.409-0.647-4.629-1.744-6.573-3.2C320.865,428.391,322.975,423.371,321.507,421.271z
							"/>
					</g>
					<g>
						
							<ellipse transform="matrix(0.7071 -0.7071 0.7071 0.7071 -262.9395 201.9008)" style="fill:#292927;" cx="112.246" cy="418.346" rx="27.457" ry="27.457"/>
						
							<ellipse transform="matrix(0.7071 -0.7071 0.7071 0.7071 -262.9395 201.9008)" style="fill:#59585B;" cx="112.246" cy="418.346" rx="19.415" ry="19.415"/>
						<path style="fill:#B5B5B5;" d="M102.969,423.551c-1.585-2.267-7.283-3.84-10.106-4.5c-0.006-0.168-0.029-0.332-0.031-0.502
							c-0.021-1.966,0.257-3.864,0.782-5.658c3.48,0.328,10.086,0.457,11.556-1.994c1.354-2.258,0.612-7.665,0.063-10.636
							c2.117-0.822,4.406-1.304,6.811-1.329c0.158-0.002,0.31,0.017,0.467,0.019c0.78,3.455,2.656,9.554,5.386,10.192
							c2.378,0.556,6.785-1.434,9.534-2.867c1.533,1.925,2.705,4.144,3.421,6.567c-3.184,1.741-7.695,4.749-7.633,7.303
							c0.061,2.514,3.272,6.431,5.347,8.706c-1.3,2.016-2.967,3.767-4.903,5.179c-2.606-2.513-7.015-6.102-9.497-5.238
							c-2.541,0.884-5.509,5.692-6.958,8.288c-2.409-0.647-4.629-1.744-6.573-3.2C102.326,430.671,104.437,425.651,102.969,423.551z
							"/>
					</g>
					<g>
						<path style="fill:#789FC2;" d="M77.416,387.737c0,0-0.377-12.955,2.071-22.064c2.448-9.109,10.901-11.498,10.901-11.498
							c1.661-3.287,17.633-27.919,17.633-27.919c-2.073-1.311-0.996-2.654-0.996-2.654c25.703-8.988,125.772-6.036,138.137-4.954
							c12.365,1.082,16.284,5.28,16.284,5.28c2.303,0.218,32.63,28.121,35.797,29.783c3.166,1.663,11.783,3.389,11.783,3.389
							c27.623,0.923,49.126,7.239,58.637,13.437c9.511,6.199,8.796,18.923,8.796,18.923s1.943,0.464,3.541,2.749
							c1.598,2.284-1.365,20.119-2.398,25.58c-0.97,5.13-14.245,9.07-15.848,9.528c1.501-3.815,2.314-7.975,2.268-12.327
							c-0.189-18.095-15.011-32.611-33.106-32.423c-18.095,0.189-32.611,15.011-32.422,33.106
							c0.046,4.369-0.436,12.351-0.436,12.351l0,0L144.8,426.88l-0.596-7.835c0.026-0.583,0.038-1.17,0.032-1.761
							c-0.184-17.629-14.624-31.77-32.252-31.586c-17.628,0.184-31.77,14.624-31.586,32.252c0.012,1.186,0.094,2.355,0.232,3.506
							c-0.655,0.082-2.237,0.224-4.194,0c-2.587-0.296-5.62-12.376-6.213-22.866C69.629,388.101,77.416,387.737,77.416,387.737z"/>
					</g>
					<path style="fill:#24292B;" d="M283.51,360.819c0,0-4.393,0.3-11.827,0.123c-7.434-0.177-89.818-3.241-89.818-3.241
						l-8.881,0.012l-67.833-0.988l-9.169-0.429l16.775-28.879c0,0,126.136-1.828,129.565-1.773
						c3.43,0.056,13.607-1.167,17.561-2.901c4.405,2.971,16.672,13.382,23.853,19.652c1.937,6.445,3.158,11.964,3.158,11.964
						L283.51,360.819z"/>
					<path style="fill:#EDB632;" d="M373.432,385.577c-0.268-2.5-6.472-16.727-18.269-17.492
						c-13.323-0.864,6.945,19.814,14.83,20.676C374.712,389.277,373.432,385.577,373.432,385.577z"/>
					<path style="fill:#D3DFF2;" d="M261.446,323.929c0,0-5.793,1.938-10.575,2.169c0,0,29.677,29.484,32.639,34.721
						c0,0,18.097-0.855,13.733-7.107C297.243,353.712,265.144,324.314,261.446,323.929z"/>
					<path style="fill:#D3DFF2;" d="M271.683,360.943c0,0-25.043-32.176-28.122-33.275c-3.08-1.098-62.009,0.001-62.009,0.001
						l0.313,30.033C181.865,357.702,267.648,361.126,271.683,360.943z"/>
					<path style="fill:#D3DFF2;" d="M172.983,357.714l-0.561-29.161c0,0-44.834-0.203-49.816,0.605
						c-3.869,0.628-17.468,26.438-17.456,27.569C105.15,356.726,169.112,358.077,172.983,357.714z"/>
					<path style="fill:#D3DFF2;" d="M108.022,326.256c0,0,2.312,1.066,4.735,1.162c0,0-1.198,1.224-5.955,9.63
						c-4.757,8.406-10.82,19.249-10.82,19.249s-4.959,0.657-5.593-2.122L108.022,326.256z"/>
					<path style="fill:#363D40;" d="M255.471,351.815c0,0-2.641,10.039-2.09,16.331c0.55,6.292,15.487-1.453,13.822-6.281
						C265.538,357.038,259.013,350.809,255.471,351.815z"/>
					<polygon style="fill:#426B89;" points="298.578,418.419 144.054,417.286 144.8,426.88 298.059,428.026 					"/>
					<path style="fill:#567D9B;" d="M271.683,360.943c2.425,1.006,4.833,2.095,6.961,3.521c1.034,0.717,2.089,1.511,2.52,2.532
						c0.451,1.053,0.764,2.361,1.032,3.604c0.523,2.526,0.918,5.101,1.21,7.683c0.321,2.579,0.551,5.174,0.702,7.773
						c0.356,5.195,0.421,10.41,0.301,15.627c-0.134,5.218-0.502,10.432-0.994,15.677c1.334-5.095,2.157-10.328,2.594-15.591
						c0.45-5.265,0.473-10.566,0.147-15.846c-0.391-5.275-1.014-10.547-2.41-15.702c-0.38-1.294-0.705-2.556-1.406-3.864
						c-0.338-0.675-0.919-1.19-1.449-1.631c-0.556-0.425-1.13-0.802-1.726-1.118C276.775,362.353,274.254,361.523,271.683,360.943z"
						/>
					<path style="fill:#567D9B;" d="M181.865,357.702c-2.516,0.855-4.506,2.886-5.968,5.112c-1.46,2.264-2.399,4.842-2.938,7.464
						c-1.075,5.279-0.845,10.641-0.388,15.867c0.516,5.242,1.339,10.432,2.408,15.565c1.066,5.133,2.338,10.222,3.951,15.212
						l-2.373-15.492c-0.742-5.158-1.469-10.312-1.942-15.476c-0.14-1.289-0.215-2.58-0.327-3.87
						c-0.055-1.288-0.137-2.581-0.158-3.866c-0.093-2.58,0.061-5.124,0.398-7.651c0.381-2.513,1.056-4.998,2.236-7.251
						C177.924,361.076,179.559,358.967,181.865,357.702z"/>
					<path style="fill:#567D9B;" d="M316.872,385.888c-1.658-2.475-3.417-4.87-5.227-7.224c-1.811-2.354-3.674-4.665-5.604-6.928
						c-0.954-1.142-1.956-2.243-2.969-3.346c-0.513-0.549-1.024-1.096-1.572-1.635c-0.272-0.272-0.566-0.533-0.883-0.8
						c-0.377-0.302-0.698-0.489-1.038-0.702c-1.345-0.801-2.71-1.434-4.104-2.003c-1.386-0.585-2.791-1.082-4.223-1.549
						l-0.089-0.029l-0.021-0.003c-2.529-0.357-5.063-0.684-7.632-0.848c2.421,0.874,4.876,1.585,7.337,2.266l-0.109-0.032
						c2.649,1.229,5.368,2.473,7.783,3.92c0.285,0.184,0.597,0.387,0.794,0.554c0.247,0.213,0.497,0.455,0.757,0.699
						c0.516,0.491,1.025,1.019,1.532,1.545l3.011,3.231C308.621,377.344,312.624,381.716,316.872,385.888z"/>
					
						<linearGradient id="SVGID_00000076604099245455726090000017996439998581471125_" gradientUnits="userSpaceOnUse" x1="120.0958" y1="400.8255" x2="381.6662" y2="400.8255" gradientTransform="matrix(-0.9999 0.0104 0.0104 0.9999 496.4146 -3.4773)">
						<stop  offset="0.1929" style="stop-color:#789FC2;stop-opacity:0"/>
						<stop  offset="0.9636" style="stop-color:#567D9B"/>
					</linearGradient>
					<path style="fill:url(#SVGID_00000076604099245455726090000017996439998581471125_);" d="M137.075,372.478l233.912,0.894
						c6.001,6.582,5.472,16.089,5.472,16.089s1.943,0.464,3.541,2.749c1.598,2.284-1.365,20.119-2.398,25.58
						c-0.97,5.13-14.245,9.07-15.848,9.528c1.501-3.815,2.314-7.975,2.268-12.327c-0.189-18.095-15.011-32.611-33.106-32.423
						c-18.095,0.189-32.611,15.011-32.422,33.106c0.046,4.369-0.436,12.351-0.436,12.351L144.8,426.88l-0.596-7.835
						c0.026-0.583,0.038-1.17,0.032-1.761c-0.16-15.291-11.047-27.951-25.436-30.922
						C124.353,373.137,137.075,372.478,137.075,372.478z"/>
					<g>
						<path style="fill:#363D40;" d="M183.588,371.992c0.025,2.354,2.294,4.239,5.07,4.21c2.776-0.029,5.006-1.961,4.981-4.315
							c-0.025-2.354-2.295-4.239-5.07-4.21C185.794,367.707,183.564,369.638,183.588,371.992z"/>
						<path style="opacity:0.45;fill:#363D40;" d="M183.588,371.992c-0.025-2.354,2.206-4.286,4.981-4.315
							c1.817-0.019,3.403,0.79,4.299,2.006c-0.911-0.729-2.139-1.175-3.493-1.161c-2.775,0.029-5.006,1.961-4.981,4.315
							c0.008,0.813,0.299,1.562,0.771,2.204C184.208,374.276,183.601,373.198,183.588,371.992z"/>
						<path style="fill:#363D40;" d="M177.552,372.312c0.006,0.564,4.791,0.972,10.687,0.91c5.896-0.061,10.672-0.569,10.666-1.133
							c-0.006-0.564-4.791-0.971-10.687-0.91C182.321,371.241,177.546,371.748,177.552,372.312z"/>
					</g>
					<path style="fill:#B91F29;" d="M91.073,366.127c0.856,0.839-2.172,12.376-4.333,14.215c-1.524,1.297-6.482,1.545-9.279,1.579
						c0.148-4.475,0.607-10.739,1.932-15.88C83.079,365.833,90.433,365.501,91.073,366.127z"/>
					<g>
						<defs>
							<path id="SVGID_00000041979536898508431910000016555629973538657974_" d="M172.983,357.714l-0.561-29.161
								c0,0-44.834-0.203-49.816,0.605c-3.869,0.628-17.468,26.438-17.456,27.569C105.15,356.726,169.112,358.077,172.983,357.714z"
								/>
						</defs>
						<clipPath id="SVGID_00000173124276480011248620000002810686166312847523_">
							<use xlink:href="#SVGID_00000041979536898508431910000016555629973538657974_"  style="overflow:visible;"/>
						</clipPath>
						
							<linearGradient id="SVGID_00000062185604986170067370000010023752842591907004_" gradientUnits="userSpaceOnUse" x1="324.3084" y1="333.1196" x2="367.5661" y2="333.1196" gradientTransform="matrix(-0.9999 0.0104 0.0104 0.9999 496.4146 -3.4773)">
							<stop  offset="0.0026" style="stop-color:#FEFDF7;stop-opacity:0"/>
							<stop  offset="0.9607" style="stop-color:#FEFEFD"/>
						</linearGradient>
						
							<polygon style="clip-path:url(#SVGID_00000173124276480011248620000002810686166312847523_);fill:url(#SVGID_00000062185604986170067370000010023752842591907004_);" points="
							175.773,349.312 132.07,306.512 132.181,317.207 175.778,359.903 						"/>
					</g>
					<g>
						<defs>
							<path id="SVGID_00000004516597354963369320000013641544813529092541_" d="M271.683,360.943c0,0-25.043-32.176-28.122-33.275
								c-3.08-1.098-62.009,0.001-62.009,0.001l0.313,30.033C181.865,357.702,267.648,361.126,271.683,360.943z"/>
						</defs>
						<clipPath id="SVGID_00000152955296097789042480000017054246720455865009_">
							<use xlink:href="#SVGID_00000004516597354963369320000013641544813529092541_"  style="overflow:visible;"/>
						</clipPath>
						
							<linearGradient id="SVGID_00000099621052991060186470000013272986524711903901_" gradientUnits="userSpaceOnUse" x1="250.3536" y1="335.5854" x2="350.1342" y2="335.5854" gradientTransform="matrix(-0.9999 0.0104 0.0104 0.9999 496.4146 -3.4773)">
							<stop  offset="0.0026" style="stop-color:#FEFDF7;stop-opacity:0"/>
							<stop  offset="0.9607" style="stop-color:#FEFEFD"/>
						</linearGradient>
						
							<polygon style="clip-path:url(#SVGID_00000152955296097789042480000017054246720455865009_);fill:url(#SVGID_00000099621052991060186470000013272986524711903901_);" points="
							249.968,372.346 149.16,273.62 149.417,298.292 249.979,396.776 						"/>
						
							<linearGradient id="SVGID_00000076580175511151327330000002379458692585594778_" gradientUnits="userSpaceOnUse" x1="245.6351" y1="317.5411" x2="345.4156" y2="317.5411" gradientTransform="matrix(-0.9999 0.0104 0.0104 0.9999 496.4146 -3.4773)">
							<stop  offset="0.0026" style="stop-color:#FEFDF7;stop-opacity:0"/>
							<stop  offset="0.9607" style="stop-color:#FEFEFD"/>
						</linearGradient>
						
							<polygon style="clip-path:url(#SVGID_00000152955296097789042480000017054246720455865009_);fill:url(#SVGID_00000076580175511151327330000002379458692585594778_);" points="
							254.585,362.589 153.777,263.863 153.86,271.866 254.422,370.351 						"/>
					</g>
				</g>
				<path style="fill:#3F4149;" d="M376.46,389.461c0,0-4.559,3.311-9.2,3.957c-4.642,0.646-10.364,0.535-10.364,0.535
					s7.853-0.253,11.767-1.574C372.576,391.057,376.46,389.461,376.46,389.461z"/>
			</g>
		</g>
	</g>
</g>
</svg>
