<?xml version="1.0" encoding="utf-8"?>
<!-- Generator: Adobe Illustrator 27.5.0, SVG Export Plug-In . SVG Version: 6.00 Build 0)  -->
<svg version="1.1" xmlns="http://www.w3.org/2000/svg" xmlns:xlink="http://www.w3.org/1999/xlink" x="0px" y="0px"
	 viewBox="0 0 500 500" style="enable-background:new 0 0 500 500;" xml:space="preserve">
<g id="BACKGROUND">
	<rect style="fill:#FFFFFF;" width="500" height="500"/>
</g>
<g id="OBJECTS">
	<ellipse style="fill:#E2E1E0;" cx="250" cy="437.659" rx="218.508" ry="7.691"/>
	<g>
		<path style="fill:#FFA44A;" d="M169.558,66.337c0,0,15.206-10.708,27.55-10.469c12.344,0.238,22.536,10.144,22.536,10.144
			L169.558,66.337z"/>
		<path style="fill:#3D5156;" d="M245.226,99.133c-4.819,0-9.243,1.647-12.778,4.386V59.357H128.486c-9.61,0-17.4,7.79-17.4,17.4
			v103.961h37.318c-3.373-4.353-5.089-10.055-4.114-16.18c1.45-9.11,9.036-16.331,18.203-17.365
			c12.632-1.424,23.333,8.422,23.333,20.767c0,4.818-1.647,9.243-4.386,12.778h51.005v-44.162c4.353,3.373,10.055,5.089,16.18,4.114
			c9.11-1.45,16.331-9.036,17.365-18.203C267.417,109.835,257.571,99.133,245.226,99.133z"/>
		<path style="fill:#FCD3B9;" d="M264.58,176.12c0.734-1.349,3.178-2.779,3.178-2.779l-0.65,2.451L264.58,176.12z"/>
		<path style="fill:#E03B57;" d="M228.603,151.13l2.79,10.064c21.994,11.652,41.9,4.949,41.9,4.949l-0.468-2.369
			C251.506,167.218,228.603,151.13,228.603,151.13z"/>
		<path style="fill:#FCD3B9;" d="M248.144,186.158c0,0,14.752-0.748,16.136,2.706c2.909,7.257-10.819,23.143-8.452,49.291
			l-4.281-2.829c0,0-1.679-26.963,2.922-37.566c0,0-1.112-0.015-6.325-0.217C242.93,197.341,248.144,186.158,248.144,186.158z"/>
		<path style="fill:#FFA44A;" d="M402.336,113.478c1.836-9.432-4.322-18.567-13.755-20.403l-102.046-19.86l-8.437,43.349
			c4.918-2.479,10.842-3.075,16.669-0.947c8.665,3.164,14.304,11.99,13.567,21.185c-1.015,12.671-12.724,21.295-24.842,18.936
			c-4.73-0.921-8.758-3.382-11.705-6.746l-8.437,43.349l43.349,8.437c-4.142,3.629-6.916,8.898-7.129,15.096
			c-0.317,9.22,5.75,17.757,14.551,20.522c12.128,3.811,24.512-3.809,26.871-15.927c0.921-4.73,0.149-9.387-1.864-13.381
			l43.349,8.437L402.336,113.478z"/>
		<path style="fill:#323E49;" d="M170.692,429.352c0,0-3.298,0.955-5.56,4.913c-2.262,3.958-3.973,7.788,0.848,6.754
			c4.521-0.97,8.548-5.993,8.061-12.272L170.692,429.352z"/>
		<path style="fill:#FCBD8D;" d="M169.226,426.438v3.542c0,0-1.373,3.278,1.372,3.189c2.745-0.089,3.763-4.694,3.675-6.731
			C174.184,424.402,169.226,426.438,169.226,426.438z"/>
		<path style="fill:#323E49;" d="M181.133,429.352c0,0,3.298,0.955,5.56,4.913c2.262,3.958,3.973,7.788-0.848,6.754
			c-4.521-0.97-8.548-5.993-8.061-12.272L181.133,429.352z"/>
		<path style="fill:#FCBD8D;" d="M182.599,426.438v3.542c0,0,1.373,3.278-1.372,3.189c-2.745-0.089-3.763-4.694-3.675-6.731
			C177.641,424.402,182.599,426.438,182.599,426.438z"/>
		<path style="fill:#323E49;" d="M186.448,345.9c0,0,1.5,20.14,1.233,31.685c-0.268,11.545-4.942,38.778-4.348,49.699
			c0,0-5.19,1.232-6.415,0c0,0,1.893-54.689-1.039-60.464c-2.932,5.775-1.039,60.464-1.039,60.464c-1.226,1.232-6.415,0-6.415,0
			c0.594-10.921-4.081-38.154-4.348-49.699c-0.268-11.545,1.233-31.685,1.233-31.685H186.448z"/>
		<path style="fill:#FCBD8D;" d="M227.037,297.053c-1.544,0.381-2.9,0.945-5.95,0.4c-3.879-0.693-5.317,1.103-5.317,1.103
			l-0.467,0.796c0,0-8.97,30.41-21.334,24.228c-12.363-6.182-9.189-8.43-17.857-8.991h-0.466c-8.668,0.562-5.494,2.81-17.857,8.991
			c-12.363,6.182-21.334-24.228-21.334-24.228l-0.467-0.796c0,0-1.438-1.797-5.317-1.103c-3.05,0.545-4.406-0.019-5.95-0.4
			c-1.544-0.381-0.68,0.036,0.284,0.997c1.732,1.726,5.197,1.814,8.144,1.996c0,0,6.91,38.328,25.905,32.821
			c2.073-0.601,3.889-1.132,5.502-1.608c0.269,4.706,0.502,15.686-0.309,20.089c-1.26,6.843,4.118,7.563,10.522,7.563h1.816
			c6.404,0,11.783-0.72,10.522-7.563c-0.818-4.439-0.574-15.505-0.303-20.206c1.708,0.505,3.655,1.075,5.898,1.725
			c18.995,5.507,25.905-32.821,25.905-32.821c2.947-0.183,6.412-0.27,8.144-1.996C227.717,297.089,228.581,296.672,227.037,297.053z
			"/>
		<path style="fill:#29B5CC;" d="M222.672,235.571c4.818,0,9.243,1.647,12.778,4.386v-44.162h-66.998
			c3.373-4.353,5.089-10.055,4.114-16.18c-1.45-9.11-9.036-16.331-18.203-17.365c-12.632-1.424-23.333,8.422-23.333,20.767
			c0,4.818,1.647,9.243,4.386,12.778H114.09v103.961c0,9.61,7.79,17.4,17.399,17.4h103.961v-44.162
			c-4.353,3.373-10.055,5.089-16.18,4.114c-9.11-1.45-16.331-9.036-17.365-18.203C200.482,246.273,210.327,235.571,222.672,235.571z
			"/>
		<path style="fill:#DD723C;" d="M192.704,332.867c0.498,0.144,0.983,0.242,1.464,0.327c0.158,0.027,0.317,0.059,0.473,0.08
			c0.363,0.051,0.718,0.076,1.072,0.095c0.285,0.014,0.568,0.02,0.848,0.016c0,0,0,0,0,0l-1.229-9.279
			c-0.45-0.132-0.902-0.296-1.362-0.526c-12.363-6.182-4.037-8.049-17.857-8.991h-0.466c-13.23,0.517-5.494,2.81-17.857,8.991
			c-0.684,0.342-0.991,0.475-1.169,0.479c-0.625,0.202-1.238,0.294-1.844,0.322l-2.843,8.474c0,0,0,0,0,0
			c0.481,0.151,0.974,0.267,1.476,0.357c0.072,0.013,0.142,0.029,0.214,0.04c0.246,0.039,0.495,0.069,0.746,0.093
			c0.341,0.03,0.686,0.051,1.037,0.05c0.168,0.001,0.338-0.007,0.508-0.014c0.43-0.018,0.863-0.05,1.307-0.116
			c0.085-0.012,0.173-0.032,0.258-0.046c0.516-0.087,1.039-0.197,1.575-0.352c2.073-0.601,3.889-1.132,5.502-1.608
			c0.269,4.706,0.502,15.686-0.309,20.089c-1.26,6.843,4.118,7.563,10.522,7.563h1.816c6.404,0,11.783-0.72,10.522-7.563
			c-0.818-4.439-0.574-15.505-0.303-20.206C188.514,331.647,190.461,332.217,192.704,332.867z"/>
		<path style="fill:#FCBD8D;" d="M174.622,312.953c8.434,3.078,13.608-9.572,15.156-15.578c1.363-5.286-6.736-7.491-6.736-7.491
			s-7.614-3.531-9.978,1.39C170.379,296.865,166.187,309.875,174.622,312.953z"/>
		<path style="fill:#FCBD8D;" d="M179.328,307.329c0,0-0.682,5.05,0,8.189c0,0-0.346,1.638-3.449,1.638
			c-3.102,0-3.449-1.638-3.449-1.638c0.682-3.139,0-8.189,0-8.189H179.328z"/>
		<path style="fill:#2C253D;" d="M192.639,297.142c0.658-4.803-5.384-13.151-12.455-10.105c-0.019-0.005,0.019,0.005,0,0
			c-12.659-3.534-8.743,8.445-8.743,8.445c3.971,1.336,8.076-3.621,8.076-3.621s-1.982,7.889,7.148,12.522l0.479,0.16
			C192.135,303.315,192.63,297.206,192.639,297.142z"/>
		<g>
			<path style="fill:#FFFFFF;" d="M160.57,333.701l-0.213-0.605c7.762-2.74,7.785-6.261,7.785-6.296l0.642-0.02
				C168.79,326.942,168.836,330.784,160.57,333.701z"/>
		</g>
		<g>
			<path style="fill:#FFFFFF;" d="M191.296,333.701l0.213-0.605c-7.762-2.74-7.786-6.261-7.785-6.296l-0.642-0.02
				C183.076,326.942,183.03,330.784,191.296,333.701z"/>
		</g>
		<path style="fill:#FCD3B9;" d="M230.533,152.284c0,0,1.84-12.722,8.801-11.208c3.284,0.714,3.492-4.682,3.492-4.682l2.904-0.734
			c-1.532-2.684,1.439-10.296,1.439-10.296s-11.115-5.367-15.494,3.942c-1.118,2.376-1.007,5.17-1.832,7.643
			c-2.408,7.215-4.663,13.566-4.663,13.566L230.533,152.284z"/>
		<path style="fill:#2C253D;" d="M234.168,117.409c0,0,4.424-5.388-0.707-8.045c-5.131-2.657-10.984,0.151-10.865,4.156
			c0.119,4.005,3.845,7.635,7.565,6.195C233.882,118.276,234.168,117.409,234.168,117.409z"/>
		<g>
			<path style="fill:#323E49;" d="M236.973,181.785c0,0,0.123,0.055,0.346,0.148c0.386-0.096,0.615-0.148,0.615-0.148H236.973z"/>
			<path style="fill:#323E49;" d="M250.365,184.96c-5.182,0.12-11.518-2.387-13.046-3.028c-3.177,0.793-18.024,5.476-15.315,12.247
				c3.037,7.593,26.141,3.363,26.141,3.363C247.594,192.776,250.365,184.96,250.365,184.96z"/>
		</g>
		<path style="fill:#E03B57;" d="M236.786,179.553c-1.676-2.765-2.983-5.736-3.458-8.933c-0.081-4.389,4.08-10.546,2.861-12.713
			c-0.834-1.484-2.508-5.192-3.48-7.383c0.076-1.117,0.141-1.768,0.141-1.768v0c-0.007-1,0.628-4.346,0.628-4.346
			c1.886,0.566,3.395-1.446,2.389-1.509c-1.006-0.063-7.351-1.32-7.351-1.32h-0.256c0,0-2.246,3.857-3.111,6.46l-0.004,0
			c-17.633,26.141-3.171,50.834-2.738,46.213s7.059-8.934,11.955-10.543C237.728,182.605,237.591,180.881,236.786,179.553z"/>
		<path style="fill:#323E49;" d="M251.332,236.916c-0.049-0.845-0.237-1.675-0.557-2.459l-0.237-0.581h0.756l0,0
			c1.603,2.705,5.263,4.418,8.407,4.374c0.049-0.001,0.099-0.002,0.15-0.003c4.635-0.104,4.895,3.923,4.895,3.923
			s-6.587,2.378-10.792-1.84l-1.497-1.51l0.625,3.611l-1.449-0.063L251.332,236.916z"/>
		<path style="fill:#FCD3B9;" d="M262.403,198.718l-7.473,2.832c0.068,12.264,3.172,27.742,3.172,27.742l4.625,2.223
			C260.017,219.742,260.952,206.834,262.403,198.718z"/>
		<path style="fill:#323E49;" d="M258.103,230.896c-0.163-0.83-0.462-1.628-0.885-2.361l-0.314-0.543l0.749-0.102l0,0
			c1.955,2.463,5.813,3.665,8.922,3.195c0.049-0.007,0.098-0.015,0.148-0.023c4.578-0.731,5.381,3.223,5.381,3.223
			s-6.204,3.249-10.942-0.361l-1.688-1.293l1.108,3.493l-1.444,0.133L258.103,230.896z"/>
		<path style="fill:#2C253D;" d="M247.169,125.364c0,0,2.883-0.072,2.16-4.159c-0.723-4.087-7.093-11.779-15.507-5.409
			c-8.413,6.37-13.852,13.519-3.561,21.483c0,0,0.239-10.654,8.368-8.742C242.965,129.557,247.169,125.364,247.169,125.364z"/>
		<path style="fill:#2C253D;" d="M242.637,126.981c0,0-4.066,2.19-3.962,5.005c0,0-0.782-2.503,0.678-4.327
			C240.812,125.834,242.637,126.981,242.637,126.981z"/>
		<path style="fill:#FCD3B9;" d="M270.576,178.772c0,0,1.436-0.239,2.89-0.877c1.091-0.479-1.035-0.508-2.166-0.494
			c0.352-0.065,0.875-0.213,1.669-0.543c1.914-0.798-2.313-0.737-2.313-0.737c2.154-0.418,2.552-1.257,1.037-1.416
			c-1.515-0.16-7.112,1.416-7.112,1.416l-0.644,3.308c2.294,0.896,8.474,0.54,9.832-0.258
			C275.127,178.373,270.576,178.772,270.576,178.772z"/>
		<g>
			<path style="fill:#FFFFFF;" d="M234.64,164.116c-0.159,0-0.327-0.013-0.503-0.038l0.093-0.636
				c0.712,0.105,1.206-0.045,1.509-0.454c1.446-1.956-1.422-9.124-2.649-11.72l0.581-0.275c0.187,0.396,4.553,9.715,2.585,12.377
				C235.888,163.866,235.346,164.116,234.64,164.116z"/>
		</g>
		<path style="fill:#E03B57;" d="M228.484,152.284l-2.605,11.223c15.789,18.277,38.058,15.921,38.058,15.921l0.644-3.308
			C237.132,175.85,228.484,152.284,228.484,152.284z"/>
		<g>
			<path style="fill:#FFFFFF;" d="M238.424,175.619c-6.252-3.732-12.24-12.941-12.491-13.331l0.54-0.349
				c0.061,0.095,6.159,9.474,12.28,13.128L238.424,175.619z"/>
		</g>
		<g>
			<path style="fill:#FFFFFF;" d="M256.681,223.98l-0.64-0.059c1.501-16.29,8.369-26.408,8.439-26.509l0.528,0.365
				C264.941,197.877,258.165,207.868,256.681,223.98z"/>
		</g>
		<path style="fill:#FCD3B9;" d="M185.828,126.318c0,0-0.127,14.202-1.642,29.566c-1.538,15.599-4.465,32.389-4.549,35.705
			l-3.303-3.52c0,0-2.367-25.406,0.567-38.558c0,0-2.191-18.207-2.025-23.193H185.828z"/>
		<path style="fill:#323E49;" d="M176.333,188.069c0,0,1.445-0.448,2.07,0.916c0.625,1.364,1.567,3.45,5.83,3.223
			c4.262-0.227,6.706,1.875,6.877,3.694c0,0-9.548,2.16-12.275-1.137l-0.909-1.591l-0.739,2.785l-0.853-0.171V188.069z"/>
		<path style="fill:#FCD3B9;" d="M190.763,126.318c0,0-0.127,14.202-1.642,29.566c-1.538,15.599-4.465,32.389-4.549,35.705
			l-3.303-3.52c0,0-2.367-25.406,0.567-38.558c0,0-2.191-18.207-2.025-23.193H190.763z"/>
		<g>
			<path style="fill:#FFFFFF;" d="M184.316,191.829l0.512-0.479l-3.222-3.432c-0.17-1.906-2.215-25.842,0.571-38.33l0.012-0.059
				l-0.007-0.06c-0.022-0.181-2.185-18.236-2.021-23.137l-0.701-0.025c-0.163,4.863,1.858,21.847,2.02,23.187
				c-2.893,13.073-0.585,38.354-0.561,38.609l0.011,0.119L184.316,191.829z"/>
		</g>
		<path style="fill:#2C253D;" d="M191.723,104.382c0,0,0.666,21.258-0.151,24.118c0,0-8.519,1.961-18.622,0.282
			c0,0,1.901-5.42,0.757-8.561c-1.012-2.777-4.91-8.074-0.357-16.408C173.349,103.813,188.708,106.39,191.723,104.382z"/>
		<path style="fill:#2C253D;" d="M188.642,57.137c0,0-1.512,10.573,5.626,14.27c7.138,3.697-5.44,9.211-12.121-3.553
			c-1.782-3.404-2.25-9.133,1.725-9.908C187.846,57.171,188.642,57.137,188.642,57.137z"/>
		<path style="fill:#FCD3B9;" d="M176.678,67.6l0.845-4.154l-2.179-5.248c-1.725-4.155-0.898-8.932,2.125-12.265h0
			c2.552-2.815,6.319-4.204,10.088-3.721l4.026-0.289l2.051,3.846c0.425,0.776,0.26,1.742-0.398,2.332
			c-0.625,0.56-0.809,1.463-0.454,2.223l1.819,3.891l-2.76,1.109c0,0,0.424,5.908-3.599,5.418c-1.943-0.237-2.692-0.345-2.951-0.394
			l-1.388,8.943L176.678,67.6z"/>
		<path style="fill:#2C253D;" d="M196.156,44.077c-1.61,0.331-2.393-1.245-3.127-2.502c-0.146-0.52-0.849-0.966-1.178-1.411
			c-0.015-0.039-0.025-0.064-0.025-0.064s-0.01,0.008-0.015,0.013c-0.272-0.357-0.583-0.69-0.964-0.96
			c-2.848-2.017-8.462-4.651-14.694-0.281c-6.619,4.642-9.788,20.699,0.896,26.906c0,0,0.848-10.82,4.673-10.392
			c3.826,0.428-3.205-3.55,0.387-5.236c1.522-0.715,3.922-1.334,6.081-2.299c0.005,0,0.01,0,0.015-0.001
			C194.521,47.401,198.814,43.532,196.156,44.077z"/>
		<path style="fill:#FFA44A;" d="M173.27,86.764c-3.185-16.571,3.779-20.987,3.779-20.987c0.662,2.885,6.853,3.513,6.853,3.513
			s5.174,4.848,5.125,5.271c1.842,1.856,4.207,4.884,3.552,7.71c-0.69,2.978-2.336,6.493-3.368,8.527
			c0.805,6.572,2.204,11.857,2.711,14.55c0.988,5.249-19.906,0.454-18.924-0.839C173.98,103.215,175.421,97.957,173.27,86.764z"/>
		<path style="fill:#2C253D;" d="M187.043,61.1c0,0,3.05,6.153,7.938,6.237c0,0-3.624,0.892-7.333-2.335L187.043,61.1z"/>
		<path style="fill:#323E49;" d="M181.269,188.069c0,0,1.445-0.448,2.07,0.916c0.625,1.364,1.567,3.45,5.83,3.223
			c4.262-0.227,6.706,1.875,6.877,3.694c0,0-9.548,2.16-12.275-1.137l-0.909-1.591l-0.739,2.785l-0.852-0.171V188.069z"/>
		<path style="fill:#FFA44A;" d="M180.26,71.702c0,0,22.595,13.916,49.792,12.628l-0.701,3.564c0,0-30.078,3.506-51.627-7.237
			L180.26,71.702z"/>
		<path style="fill:#3D5156;" d="M178.013,78.759l0.606-0.298c1.903,3.875,9.316,6.119,12.962,7.009
			c-0.081,0.216-0.163,0.428-0.247,0.642C187.562,85.197,180.048,82.899,178.013,78.759z"/>
		<path style="fill:#FCD3B9;" d="M230.052,84.331c0,0,2.395-0.602,2.395-2.043v-2.215c0,0,2.366,0.959,2.366,3.459
			c0,2.5-0.185,5.024-5.462,4.364L230.052,84.331z"/>
		<path style="fill:#FFA44A;" d="M393.87,350.885c0,0-20.062-8.086-26.19-18.521l-1.44,2.094c0,0,11.862,19.307,24.524,24.362
			C403.426,363.874,393.87,350.885,393.87,350.885z"/>
		<path style="fill:#3D5156;" d="M333.825,251.39c3.373,4.354,5.089,10.055,4.114,16.181c-1.45,9.11-9.036,16.331-18.203,17.365
			c-12.632,1.424-23.333-8.422-23.333-20.767c0-4.818,1.647-9.243,4.386-12.778h-44.162v44.162
			c-4.353-3.373-10.055-5.089-16.18-4.114c-9.11,1.45-16.331,9.036-17.364,18.203c-1.424,12.632,8.422,23.333,20.767,23.333
			c4.818,0,9.243-1.647,12.778-4.386v44.162h103.961c9.61,0,17.4-7.79,17.4-17.4V251.39H333.825z"/>
		<polygon style="fill:#FCBD8D;" points="432.55,421.039 436.466,421.039 436.466,424.731 431.866,424.731 		"/>
		<path style="fill:#323E49;" d="M399.44,424.133c0,0-0.526-4.475-0.381-9.146h-15.047c0.587,6.852,1.512,12.892,2.979,15.101
			c4.112,6.193,38.89-6.193,45.56-4.526v-5.241C432.55,420.322,410.874,419.607,399.44,424.133z"/>
		<path style="fill:#323E49;" d="M436.466,421.039c0,0,2.437-0.543,3.511-0.397c0,0,1.101,5.675,0.402,13.725
			c0,0-3.913-2.091-3.913-9.637h-1.062C435.404,424.731,436.551,423.802,436.466,421.039z"/>
		<polygon style="fill:#FCBD8D;" points="432.55,427.861 436.466,427.861 436.466,431.553 431.866,431.553 		"/>
		<path style="fill:#323E49;" d="M383.003,394.434c0,0-0.125,36.283,3.987,42.477c4.112,6.193,38.89-6.193,45.56-4.526v-5.241
			c0,0-21.677-0.715-33.111,3.811c0,0-1.328-11.265,0.809-16.704c4.519-11.501,1.811-14.148,0.858-21.533L383.003,394.434z"/>
		<path style="fill:#FCBD8D;" d="M384.402,322.692l-0.906,6.162l-0.886,3.269c-0.181,0.668,0.128,1.372,0.743,1.69l1.139,0.59
			l-0.347,1.727c-0.323,1.606,0.705,3.173,2.306,3.517l3.972,0.853c1.745,0.375,2.867,2.079,2.523,3.83l-1.826,9.281l11.135-3.72
			l0.307-24.933L384.402,322.692z"/>
		<path style="fill:#FFA44A;" d="M402.254,343.323c0,0-8.898-0.088-14.692,5.706c0,0,11.99-3.824,14.999-1.986L402.254,343.323z"/>
		<path style="fill:#FFA44A;" d="M402.561,347.043c0,0,6.441,14.006,2.954,26.313c-3.487,12.307-4.268,16.36-2.954,19.026
			c1.313,2.667-7.274,2.667-18.159,2.051h-3.245c0,0-1.028-4.636,0.596-6.893c1.625-2.256-0.209-5.943,3.778-18.779
			c3.338-10.749,2.031-19.734,2.031-19.734S397.966,339.396,402.561,347.043z"/>
		<path style="fill:#FFA44A;" d="M392.56,349.029l-8.609,5.576c-5.924,3.837-13.313,4.647-19.928,2.184l-21.508-8.007l-2.72,1.569
			l26.393,14.29c5.086,2.754,11.042,3.426,16.614,1.876l7.741-2.153l2.611-15.335"/>
		<path style="fill:#323E49;" d="M436.466,427.861c0,0,2.437-0.543,3.511-0.397c0,0,1.101,5.675,0.402,13.725
			c0,0-3.913-2.091-3.913-9.637h-1.062C435.404,431.553,436.551,430.623,436.466,427.861z"/>
		<g>
			<path style="fill:#FFFFFF;" d="M399.123,431.389v-9.5h0.634v8.638c1.99-0.597,10.815-3.111,19.114-3.405
				c9.339-0.33,13.639-0.294,13.682-0.295l-0.005,0.634c-0.042-0.001-4.329-0.035-13.655,0.295
				c-9.291,0.328-19.257,3.469-19.356,3.501L399.123,431.389z"/>
		</g>
		<g>
			<path style="fill:#FFFFFF;" d="M383.186,355.149l-0.364-0.518c0.251-0.178,6.222-4.338,10.898-3.973l-0.052,0.632
				C389.238,350.931,383.246,355.108,383.186,355.149z"/>
		</g>
		<g>
			<path style="fill:#FFFFFF;" d="M385.313,366.686l-0.255-0.58c0.084-0.037,8.441-3.727,10.648-6.325l0.483,0.411
				C393.888,362.901,385.662,366.534,385.313,366.686z"/>
		</g>
		<path style="fill:#2C253D;" d="M398.989,319.323c-8.947-4.116-14.587-1.822-14.541,3.325l-0.046,0.044l6.932,2.548
			c1.168,0.429,1.969,1.51,2.041,2.752c0.105,1.82,1.739,3.163,3.544,2.915l2.033-0.28l1.619,6.392l2.127,1.312l0.286-2.242
			c0.599-3.188,1.814-3.727,1.814-3.727C410.726,323.392,399.32,319.476,398.989,319.323z"/>
		<path style="fill:#FCBD8D;" d="M342.515,348.782c0,0-2.843-2.39-3.412-4.69c-0.569-2.3-1.137-4.005-2.161-3.437
			c-1.023,0.569,0.455,4.008,0.455,4.008s-5.232-5.934-7.62-4.118c-2.388,1.816-3.071,5.683,1.365,6.82s8.653,2.985,8.653,2.985
			L342.515,348.782z"/>
		<path style="fill:#FFBA55;" d="M148.296,233.616c0-11.455-9.645-20.657-21.257-19.928c-9.715,0.61-17.708,8.357-18.594,18.05
			c-0.743,8.136,3.4,15.375,9.829,19.128c2.349,1.371,3.778,3.9,3.778,6.62v3.945h12.55v-3.788c0-2.76,1.392-5.384,3.776-6.775
			C144.31,247.407,148.296,240.979,148.296,233.616z"/>
		<path style="fill:#FFFFFF;" d="M134.605,264.458h-12.554c-0.778,0-1.409-0.631-1.409-1.409v-0.209
			c0-0.778,0.631-1.409,1.409-1.409h12.554c0.778,0,1.409,0.631,1.409,1.409v0.209C136.014,263.828,135.383,264.458,134.605,264.458
			z"/>
		<path style="fill:#FFFFFF;" d="M134.605,267.485h-12.554c-0.778,0-1.409-0.631-1.409-1.409v-0.209
			c0-0.778,0.631-1.409,1.409-1.409h12.554c0.778,0,1.409,0.631,1.409,1.409v0.209C136.014,266.854,135.383,267.485,134.605,267.485
			z"/>
		<path style="fill:#FFFFFF;" d="M134.605,270.511h-12.554c-0.778,0-1.409-0.631-1.409-1.409v-0.209
			c0-0.778,0.631-1.409,1.409-1.409h12.554c0.778,0,1.409,0.631,1.409,1.409v0.209C136.014,269.88,135.383,270.511,134.605,270.511z
			"/>
		<path style="fill:#FFFFFF;" d="M129.08,275.686h-1.504c-1.913,0-3.464-1.551-3.464-3.464v-1.711h8.433v1.711
			C132.545,274.135,130.994,275.686,129.08,275.686z"/>
		<path style="fill:#FFFFFF;" d="M131.746,241.442c-0.67,0-1.274,0.279-1.709,0.724c-0.434-0.445-1.039-0.724-1.709-0.724
			c-0.67,0-1.274,0.279-1.709,0.724c-0.435-0.445-1.039-0.724-1.709-0.724c-1.318,0-2.391,1.073-2.391,2.391
			c0,1.319,1.073,2.392,2.391,2.392c0.447,0,0.86-0.133,1.218-0.348v16.48h0.981v-16.481c0.358,0.216,0.771,0.349,1.219,0.349
			c0.448,0,0.861-0.133,1.22-0.349v16.481h0.981v-16.48c0.358,0.215,0.77,0.348,1.217,0.348c1.319,0,2.392-1.073,2.392-2.392
			C134.137,242.515,133.064,241.442,131.746,241.442z M124.91,244.86c-0.566,0-1.026-0.46-1.026-1.027
			c0-0.566,0.461-1.026,1.026-1.026c0.567,0,1.027,0.46,1.027,1.026C125.937,244.399,125.476,244.86,124.91,244.86z M128.328,244.86
			c-0.566,0-1.026-0.46-1.026-1.027c0-0.566,0.461-1.026,1.026-1.026c0.566,0,1.027,0.46,1.027,1.026
			C129.355,244.399,128.894,244.86,128.328,244.86z M131.746,244.86c-0.566,0-1.026-0.46-1.026-1.027
			c0-0.566,0.46-1.026,1.026-1.026c0.566,0,1.027,0.46,1.027,1.026C132.773,244.399,132.312,244.86,131.746,244.86z"/>
		<g>
			<path style="fill:#FFFFFF;" d="M128.328,209.315c-0.768,0-1.391-0.622-1.391-1.391v-5.643c0-0.768,0.622-1.391,1.391-1.391
				c0.768,0,1.39,0.622,1.39,1.391v5.643C129.719,208.692,129.096,209.315,128.328,209.315z"/>
		</g>
		<g>
			<path style="fill:#FFFFFF;" d="M145.592,216.466c-0.543-0.543-0.543-1.423,0-1.966l3.99-3.99c0.543-0.543,1.423-0.543,1.966,0
				c0.543,0.543,0.543,1.423,0,1.966l-3.99,3.99C147.015,217.009,146.135,217.009,145.592,216.466z"/>
		</g>
		<g>
			<path style="fill:#29B5CC;" d="M105.107,256.95c-0.543-0.543-0.543-1.423,0-1.966l3.991-3.99c0.543-0.543,1.423-0.543,1.966,0
				c0.543,0.543,0.543,1.423,0,1.966l-3.991,3.991C106.531,257.493,105.651,257.493,105.107,256.95z"/>
		</g>
		<g>
			<path style="fill:#FFFFFF;" d="M152.743,233.73c0-0.768,0.622-1.391,1.391-1.391h5.643c0.768,0,1.391,0.622,1.391,1.391
				c0,0.768-0.622,1.39-1.391,1.39h-5.643C153.365,235.12,152.743,234.498,152.743,233.73z"/>
		</g>
		<g>
			<path style="fill:#29B5CC;" d="M95.489,233.73c0-0.768,0.622-1.391,1.39-1.391h5.643c0.768,0,1.39,0.622,1.39,1.391
				c0,0.768-0.622,1.39-1.39,1.39H96.88C96.112,235.12,95.489,234.498,95.489,233.73z"/>
		</g>
		<g>
			<path style="fill:#FFFFFF;" d="M145.592,250.993c0.543-0.543,1.423-0.543,1.966,0l3.99,3.99c0.543,0.543,0.543,1.423,0,1.966
				c-0.543,0.543-1.423,0.543-1.966,0l-3.99-3.991C145.049,252.417,145.049,251.536,145.592,250.993z"/>
		</g>
		<g>
			<path style="fill:#29B5CC;" d="M105.107,210.509c0.543-0.543,1.423-0.543,1.966,0l3.991,3.99c0.543,0.543,0.543,1.423,0,1.966
				c-0.543,0.543-1.423,0.543-1.966,0l-3.991-3.99C104.564,211.932,104.564,211.052,105.107,210.509z"/>
		</g>
		<g>
			<polygon style="fill:#3D5156;" points="359.702,246.832 364.531,252.145 341.4,252.145 345.438,246.832 			"/>
			<path style="fill:#3D5156;" d="M341.275,201.358c0,0,0.659-0.034,1.729,0.008l0.655-6.551c0,0,3.456,3.023,3.089,6.933
				c4.751,0.784,11.237,3.059,13.663,9.562c3.385,9.079,1.835,23.699,1.269,28.037h-16.91l-0.57-1.026
				c-2.089-3.76-1.725-8.45,1.03-11.753c2.052-2.461,4.461-4.47,5.155-7.257c1.276-5.124-2.005-8.366-2.005-8.366
				c-1.276,3.099-4.74,3.281-7.474,3.099c-2.734-0.182-5.286,4.375-5.286,4.375l-2.614-2.005L341.275,201.358z"/>
			<polygon style="fill:#3D5156;" points="342.721,242.743 344.99,240.971 361.8,240.971 363.886,243.59 360.441,245.209 
				345.62,245.209 			"/>
		</g>
	</g>
</g>
<g id="DESIGNED_BY_FREEPIK">
	<g id="XMLID_2_">
		<g id="XMLID_81_">
			<g id="XMLID_338_">
				<path id="XMLID_346_" style="fill:#1D262D;" d="M260.104,467.052c-0.432,0.443-0.803,0.931-1.108,1.453l-0.465-0.241
					c-0.067-0.298-0.349-0.503-0.659-0.466c-0.331,0.039-0.568,0.339-0.529,0.67c0.039,0.331,0.339,0.568,0.67,0.529
					c0.066-0.008,0.127-0.026,0.184-0.052l0.452,0.234c-0.251,0.554-0.433,1.139-0.539,1.744l0.747,0.132
					c0.23-1.306,0.85-2.507,1.792-3.472L260.104,467.052z"/>
				<path id="XMLID_345_" style="fill:#1D262D;" d="M265.592,464.75c-0.171,0-0.341,0.006-0.51,0.017l-0.074-0.626
					c0.188-0.149,0.296-0.389,0.266-0.645c-0.046-0.393-0.402-0.674-0.795-0.628c-0.393,0.046-0.674,0.402-0.628,0.795
					c0.03,0.254,0.189,0.461,0.405,0.564l0.074,0.624c-0.714,0.116-1.403,0.332-2.06,0.646l0.327,0.684
					c0.934-0.447,1.942-0.673,2.995-0.673c0.496,0,0.993,0.053,1.475,0.158l0.161-0.741
					C266.692,464.809,266.142,464.75,265.592,464.75z"/>
				<path id="XMLID_344_" style="fill:#1D262D;" d="M272.194,467.297c0.331-0.04,0.566-0.341,0.526-0.672
					c-0.04-0.331-0.341-0.566-0.672-0.526c-0.309,0.038-0.535,0.304-0.53,0.609l-0.416,0.363c-0.418-0.43-0.889-0.813-1.408-1.139
					l-0.404,0.641c1.134,0.715,2.021,1.726,2.563,2.925l0.691-0.313c-0.251-0.554-0.568-1.072-0.942-1.545l0.402-0.351
					C272.065,467.302,272.129,467.306,272.194,467.297z"/>
				<path id="XMLID_343_" style="fill:#1D262D;" d="M265.044,474.959c-0.386,0.023-0.775,0.035-1.157,0.035
					c-0.88,0-1.733-0.061-2.478-0.179c-0.39-0.062-0.846-0.155-1.27-0.292c1.046,1.861,3.069,3.125,5.388,3.125
					c2.855,0,5.262-1.916,5.95-4.504c-0.682,0.449-1.505,0.825-2.459,1.123C267.839,474.634,266.463,474.873,265.044,474.959z"/>
				<path id="XMLID_339_" style="fill:#1D262D;" d="M265.592,466.266c-3.352,0-6.08,2.666-6.08,5.944
					c0,0.425,0.046,0.849,0.137,1.261c0.673,0.483,2.706,0.89,5.348,0.731c2.879-0.173,5.297-0.957,6.672-2.158
					c-0.006-0.195-0.021-0.39-0.045-0.582C271.244,468.5,268.65,466.266,265.592,466.266z M263.432,472.781
					c-1.02,0-1.85-0.83-1.85-1.85c0-1.02,0.83-1.85,1.85-1.85c1.02,0,1.85,0.83,1.85,1.85
					C265.282,471.951,264.452,472.781,263.432,472.781z M268.17,471.873c-0.75,0-1.36-0.61-1.36-1.36s0.61-1.361,1.36-1.361
					c0.75,0,1.361,0.61,1.361,1.361S268.92,471.873,268.17,471.873z"/>
			</g>
			<path id="XMLID_87_" style="fill:#1D262D;" d="M281.595,468.134c-0.295-0.116-0.805-0.309-1.382-0.237
				c-0.551,0.068-0.844,0.34-0.844,1.007v0.866h2.228v1.717h-2.228v5.455h-1.932v-5.455h-1.34v-1.717h1.34v-0.888
				c0-1.68,0.896-2.783,2.568-2.783c0.643,0,1.157,0.122,1.59,0.308L281.595,468.134z"/>
			<path id="XMLID_85_" style="fill:#1D262D;" d="M286.298,471.466c-0.177-0.03-0.358-0.046-0.526-0.046
				c-0.896,0-1.51,0.548-1.51,1.613v3.908h-1.932v-7.172h1.873v0.785c0.451-0.674,1.14-0.977,2.021-0.977
				c0.414,0,0.848,0.128,1.094,0.337L286.298,471.466z"/>
			<path id="XMLID_331_" style="fill:#1D262D;" d="M293.965,473.344c0,0.222-0.015,0.489-0.037,0.651h-5.085
				c0.207,1.036,0.933,1.488,1.843,1.488c0.622,0,1.295-0.252,1.813-0.688l1.133,1.243c-0.814,0.748-1.85,1.088-3.057,1.088
				c-2.198,0-3.723-1.495-3.723-3.753c0-2.257,1.48-3.797,3.627-3.797C292.544,469.576,293.958,471.108,293.965,473.344z
				 M288.851,472.678h3.175c-0.177-0.918-0.733-1.436-1.562-1.436C289.554,471.242,289.021,471.789,288.851,472.678z"/>
			<path id="XMLID_328_" style="fill:#1D262D;" d="M301.618,473.344c0,0.222-0.015,0.489-0.037,0.651h-5.085
				c0.207,1.036,0.933,1.488,1.843,1.488c0.622,0,1.295-0.252,1.813-0.688l1.132,1.243c-0.814,0.748-1.85,1.088-3.057,1.088
				c-2.198,0-3.723-1.495-3.723-3.753c0-2.257,1.48-3.797,3.627-3.797C300.197,469.576,301.611,471.108,301.618,473.344z
				 M296.504,472.678h3.175c-0.178-0.918-0.733-1.436-1.562-1.436C297.207,471.242,296.674,471.789,296.504,472.678z"/>
			<path id="XMLID_325_" style="fill:#1D262D;" d="M309.964,473.351c0,2.154-1.495,3.775-3.471,3.775
				c-0.962,0-1.643-0.378-2.109-0.933v3.708h-1.924v-10.133h1.887v0.792c0.466-0.585,1.155-0.984,2.139-0.984
				C308.469,469.576,309.964,471.197,309.964,473.351z M304.287,473.351c0,1.132,0.747,1.976,1.843,1.976
				c1.14,0,1.85-0.881,1.85-1.976c0-1.095-0.71-1.976-1.85-1.976C305.035,471.375,304.287,472.219,304.287,473.351z"/>
			<path id="XMLID_83_" style="fill:#1D262D;" d="M313.068,467.423c0,0.696-0.54,1.229-1.236,1.229
				c-0.696,0-1.229-0.533-1.229-1.229c0-0.696,0.533-1.243,1.229-1.243C312.527,466.179,313.068,466.727,313.068,467.423z
				 M312.809,476.941h-1.932v-7.172h1.932V476.941z"/>
			<path id="XMLID_82_" style="fill:#1D262D;" d="M316.032,472.322l2.701-2.554h2.368l-3.479,3.375l3.501,3.797h-2.376l-2.716-2.901
				v2.901H314.1v-10.658h1.932V472.322z"/>
		</g>
		<g id="XMLID_3_">
			<path id="XMLID_264_" style="fill:#1D262D;" d="M184.412,476.876v-1.055c-0.527,0.718-1.391,1.23-2.387,1.23
				c-1.846,0-3.149-1.406-3.149-3.706c0-2.256,1.289-3.721,3.149-3.721c0.952,0,1.816,0.469,2.387,1.245v-3.765h1.099v9.77H184.412z
				 M184.412,474.957v-3.208c-0.395-0.615-1.245-1.143-2.124-1.143c-1.421,0-2.27,1.172-2.27,2.739c0,1.567,0.85,2.724,2.27,2.724
				C183.167,476.07,184.017,475.572,184.412,474.957z"/>
			<path id="XMLID_261_" style="fill:#1D262D;" d="M186.932,473.331c0-2.051,1.465-3.706,3.486-3.706
				c2.139,0,3.398,1.67,3.398,3.794v0.279h-5.727c0.088,1.333,1.025,2.446,2.549,2.446c0.805,0,1.626-0.322,2.182-0.893l0.527,0.718
				c-0.703,0.703-1.655,1.084-2.812,1.084C188.44,477.052,186.932,475.543,186.932,473.331z M190.403,470.533
				c-1.509,0-2.256,1.274-2.314,2.358h4.643C192.718,471.837,192.014,470.533,190.403,470.533z"/>
			<path id="XMLID_259_" style="fill:#1D262D;" d="M194.607,475.938l0.571-0.791c0.469,0.542,1.362,1.011,2.329,1.011
				c1.084,0,1.67-0.513,1.67-1.216c0-1.714-4.38-0.659-4.38-3.281c0-1.098,0.952-2.036,2.636-2.036c1.201,0,2.051,0.454,2.622,1.026
				l-0.513,0.762c-0.424-0.513-1.201-0.894-2.109-0.894c-0.967,0-1.567,0.483-1.567,1.113c0,1.552,4.38,0.527,4.38,3.281
				c0,1.187-0.952,2.139-2.783,2.139C196.306,477.052,195.324,476.7,194.607,475.938z"/>
			<path id="XMLID_256_" style="fill:#1D262D;" d="M201.477,468.058c0-0.41,0.337-0.747,0.732-0.747c0.41,0,0.747,0.337,0.747,0.747
				c0,0.41-0.337,0.732-0.747,0.732C201.814,468.79,201.477,468.468,201.477,468.058z M201.667,476.876v-7.075h1.099v7.075H201.667z
				"/>
			<path id="XMLID_252_" style="fill:#1D262D;" d="M204.582,478.692l0.556-0.82c0.586,0.703,1.289,0.967,2.3,0.967
				c1.172,0,2.27-0.571,2.27-2.124v-1.011c-0.513,0.718-1.377,1.26-2.373,1.26c-1.845,0-3.149-1.377-3.149-3.662
				c0-2.27,1.289-3.677,3.149-3.677c0.952,0,1.802,0.469,2.373,1.245v-1.069h1.098v6.87c0,2.344-1.641,3.076-3.369,3.076
				C206.237,479.747,205.417,479.512,204.582,478.692z M209.709,474.84v-3.091c-0.381-0.615-1.23-1.143-2.109-1.143
				c-1.421,0-2.27,1.128-2.27,2.695c0,1.553,0.849,2.695,2.27,2.695C208.478,475.997,209.328,475.455,209.709,474.84z"/>
			<path id="XMLID_78_" style="fill:#1D262D;" d="M217.413,476.876v-4.629c0-1.245-0.63-1.641-1.582-1.641
				c-0.865,0-1.685,0.527-2.095,1.099v5.17h-1.099v-7.075h1.099v1.025c0.498-0.586,1.465-1.201,2.519-1.201
				c1.48,0,2.256,0.747,2.256,2.285v4.966H217.413z"/>
			<path id="XMLID_69_" style="fill:#1D262D;" d="M219.932,473.331c0-2.051,1.465-3.706,3.486-3.706c2.138,0,3.398,1.67,3.398,3.794
				v0.279h-5.727c0.088,1.333,1.025,2.446,2.549,2.446c0.806,0,1.626-0.322,2.183-0.893l0.527,0.718
				c-0.703,0.703-1.655,1.084-2.812,1.084C221.441,477.052,219.932,475.543,219.932,473.331z M223.404,470.533
				c-1.509,0-2.256,1.274-2.314,2.358h4.643C225.718,471.837,225.015,470.533,223.404,470.533z"/>
			<path id="XMLID_56_" style="fill:#1D262D;" d="M233.35,476.876v-1.055c-0.527,0.718-1.392,1.23-2.388,1.23
				c-1.845,0-3.149-1.406-3.149-3.706c0-2.256,1.289-3.721,3.149-3.721c0.952,0,1.817,0.469,2.388,1.245v-3.765h1.098v9.77H233.35z
				 M233.35,474.957v-3.208c-0.396-0.615-1.245-1.143-2.124-1.143c-1.421,0-2.27,1.172-2.27,2.739c0,1.567,0.849,2.724,2.27,2.724
				C232.105,476.07,232.954,475.572,233.35,474.957z"/>
			<path id="XMLID_221_" style="fill:#1D262D;" d="M239.692,476.876v-9.77h1.098v3.765c0.572-0.776,1.421-1.245,2.388-1.245
				c1.845,0,3.149,1.465,3.149,3.721c0,2.299-1.304,3.706-3.149,3.706c-0.996,0-1.86-0.513-2.388-1.23v1.055H239.692z M242.9,476.07
				c1.436,0,2.286-1.157,2.286-2.724c0-1.568-0.85-2.739-2.286-2.739c-0.864,0-1.728,0.527-2.109,1.143v3.208
				C241.171,475.572,242.036,476.07,242.9,476.07z"/>
			<path id="XMLID_24_" style="fill:#1D262D;" d="M247.528,478.648c0.161,0.073,0.425,0.117,0.601,0.117
				c0.483,0,0.806-0.161,1.055-0.747l0.469-1.069l-2.959-7.148h1.187l2.358,5.801l2.344-5.801h1.201l-3.545,8.51
				c-0.425,1.025-1.143,1.421-2.08,1.435c-0.234,0-0.601-0.044-0.806-0.103L247.528,478.648z"/>
		</g>
	</g>
</g>
</svg>
